<svg id="reddit_logo" data-name="reddit logo" xmlns="http://www.w3.org/2000/svg" viewBox="0 0 290 110"><defs><style>.cls-1{fill:#ff4500;}.cls-2{fill:#222;}.cls-3{fill:#fff;}</style></defs><title>reddit logo</title><ellipse class="cls-1" cx="253.59" cy="39.95" rx="5.92" ry="6.11"/><path class="cls-2" d="M169,66a4.27,4.27,0,0,0,4.47-4.44,17.78,17.78,0,0,0-.28-2.48c-1.79-8-8-13.83-15.48-13.83-8.83,0-16,8.24-16,18.39S148.86,82,157.69,82A15.53,15.53,0,0,0,170,76.68a3.64,3.64,0,0,0-.56-5.31,3.55,3.55,0,0,0-4.41.46,10.69,10.69,0,0,1-7.38,3.29c-4.47,0-8.27-4-9.11-9.22H169ZM157.63,52.23c4,0,7.49,3.23,8.78,7.67H148.86C150.14,55.4,153.61,52.23,157.63,52.23Z"/><path class="cls-2" d="M142,48.89a3.44,3.44,0,0,0-2.79-3.4A12.69,12.69,0,0,0,127.18,50v-.46a3.38,3.38,0,0,0-3.36-3.46,3.42,3.42,0,0,0-3.35,3.46V77.77a3.5,3.5,0,0,0,3.13,3.58,3.4,3.4,0,0,0,3.58-3.46V63.3c0-6.45,4.69-11.76,11.17-11H139A3.36,3.36,0,0,0,142,48.89Z"/><path class="cls-2" d="M257,52.58a3.36,3.36,0,1,0-6.71,0V77.89a3.36,3.36,0,1,0,6.71,0Z"/><path class="cls-2" d="M207.09,33.44a3.35,3.35,0,1,0-6.7,0V48.83a11.41,11.41,0,0,0-8.55-3.52c-8.83,0-16,8.25-16,18.4s7.16,18.39,16,18.39a11.54,11.54,0,0,0,8.6-3.58,3.35,3.35,0,0,0,6.65-.63Zm-15.2,41.8c-5.14,0-9.27-5.14-9.27-11.53s4.13-11.54,9.27-11.54,9.28,5.14,9.28,11.54S197,75.24,191.89,75.24Z"/><path class="cls-2" d="M242.08,33.44a3.36,3.36,0,1,0-6.71,0V48.83a11.41,11.41,0,0,0-8.55-3.52c-8.83,0-16,8.25-16,18.4s7.15,18.39,16,18.39a11.56,11.56,0,0,0,8.61-3.58,3.35,3.35,0,0,0,6.65-.63Zm-15.26,41.8c-5.14,0-9.27-5.14-9.27-11.53s4.13-11.54,9.27-11.54,9.28,5.14,9.28,11.54S232,75.24,226.82,75.24Z"/><path class="cls-2" d="M273.94,78V52.23h3A3.09,3.09,0,0,0,280,49.35a3.06,3.06,0,0,0-3-3.29h-3.07V41.22a3.49,3.49,0,0,0-3.13-3.57,3.39,3.39,0,0,0-3.58,3.46v5h-2.79a3.09,3.09,0,0,0-.12,6.17h2.85V78a3.42,3.42,0,0,0,3.36,3.46A3.51,3.51,0,0,0,273.94,78Z"/><ellipse class="cls-1" cx="54.86" cy="55" rx="46.83" ry="48.31"/><path class="cls-3" d="M86.1,55a6.92,6.92,0,0,0-6.82-7,6.75,6.75,0,0,0-4.75,2,33.27,33.27,0,0,0-18.28-6l3.13-15.1,10.17,2.24a4.87,4.87,0,1,0,4.87-5.24,4.85,4.85,0,0,0-4.36,2.82L58.71,26.17a1.16,1.16,0,0,0-.89.18,1.09,1.09,0,0,0-.5.8L53.85,44a33.19,33.19,0,0,0-18.56,6,6.73,6.73,0,0,0-4.75-2,6.91,6.91,0,0,0-6.81,7,7,7,0,0,0,4,6.4,13.32,13.32,0,0,0-.17,2.13c0,10.84,12.24,19.66,27.33,19.66s27.33-8.76,27.33-19.66a13.9,13.9,0,0,0-.17-2.13A7.13,7.13,0,0,0,86.1,55ZM39.26,60a4.87,4.87,0,1,1,4.87,5A4.95,4.95,0,0,1,39.26,60ZM66.48,73.33C63.13,76.79,56.76,77,54.91,77s-8.27-.29-11.57-3.69a1.32,1.32,0,0,1,0-1.84,1.22,1.22,0,0,1,1.79,0c2.12,2.19,6.6,2.94,9.78,2.94s7.71-.75,9.78-2.94a1.22,1.22,0,0,1,1.79,0A1.42,1.42,0,0,1,66.48,73.33Zm-.89-8.24a5,5,0,1,1,4.86-5A4.95,4.95,0,0,1,65.59,65.09Z"/></svg>